<svg width="16" height="17" viewBox="0 0 16 17" fill="none" xmlns="http://www.w3.org/2000/svg">
<mask id="mask0" mask-type="alpha" maskUnits="userSpaceOnUse" x="0" y="0" width="16" height="17">
<circle cx="8" cy="8.82901" r="8" fill="white"/>
</mask>
<g mask="url(#mask0)">
<path d="M1.40797 4.31274C1.24063 4.5546 0.826321 4.71979 0.6861 4.97995C0.394321 5.5213 0.423519 6.18644 0.263062 6.79381H3.89965L1.40797 4.31274Z" fill="#29337A"/>
<path d="M5.75559 1.18127C4.83448 1.4484 3.98141 1.87465 3.23022 2.43062L5.75559 4.94538V1.18127Z" fill="#29337A"/>
<path d="M3.41809 15.3494C4.1227 15.8404 4.90991 16.2205 5.75564 16.4657V13.022L3.41809 15.3494Z" fill="#29337A"/>
<path d="M0.354858 11.1743C0.619196 12.0269 1.02426 12.8179 1.54193 13.5216L3.89916 11.1743H0.354858V11.1743Z" fill="#29337A"/>
<path d="M1.5057 4.09805C1.46101 4.15889 1.41696 4.22061 1.37379 4.28296L3.89959 6.79395H0.263C0.204063 7.01731 0.155962 7.24498 0.116333 7.47577H4.90202L1.5057 4.09805Z" fill="white"/>
<path d="M3.20703 15.2588C3.26786 15.3039 3.33037 15.3469 3.39245 15.3901L5.75556 13.0219V26.4656C5.98013 26.531 6.20822 26.5875 6.44025 26.6328V12.024L3.20703 15.2588Z" fill="white"/>
<path d="M0.354731 11.1743H3.89907L1.51512 13.5508C1.77149 13.8996 2.06484 14.2853 2.37373 14.588L6.44033 10.5164L0.177246 10.4924C0.226866 10.7235 0.285432 10.951 0.354731 11.1743Z" fill="white"/>
<path d="M5.7557 1.11047V4.94537L3.16738 2.37199C2.81923 2.62981 2.4938 2.91603 2.19226 3.22588L6.44026 7.45213V0.943275C6.20836 0.988923 5.98027 1.04549 5.7557 1.11047Z" fill="white"/>
<path d="M5.86426 11.1682L5.75002 11.2826H5.86426V11.1682Z" fill="#D32030"/>
<path d="M6.4348 10.6008H6.54888V10.4865L6.4348 10.6008Z" fill="#D32030"/>
<path d="M9.59989 7.49534H9.48999V7.60542L9.59989 7.49534Z" fill="#D32030"/>
<path d="M5.8871 6.90157L5.77479 6.78909V6.90157H5.8871Z" fill="#D32030"/>
<path d="M6.45928 7.47106V7.58306H6.57175L6.45928 7.47106Z" fill="#D32030"/>
<path d="M10.1544 14.7034V16.488C11.0112 16.2492 11.8099 15.8727 12.5244 15.3822L10.5826 13.4486C10.4274 13.9915 10.3707 14.2721 10.1544 14.7034Z" fill="#29337A"/>
<path d="M10.5928 4.50871L12.7126 2.39782C11.9511 1.84246 11.0871 1.41923 10.1544 1.15903V2.99224C10.4037 3.48938 10.4247 3.86713 10.5928 4.50871Z" fill="#29337A"/>
<path d="M14.4144 13.568C14.9483 12.8528 15.3643 12.0456 15.6346 11.1743H12.0106L14.4144 13.568Z" fill="#29337A"/>
<path d="M15.7262 6.79395C15.4835 5.8757 15.08 5.02333 14.5482 4.26649L12.0098 6.79395H15.7262Z" fill="#29337A"/>
<path d="M11.0596 10.6273L11.6089 11.1744L14.2821 13.8252C14.3418 13.7508 14.3984 13.6759 14.4555 13.5996L12.0109 11.1744H15.6815C15.7506 10.9513 15.8358 10.7236 15.8853 10.4926H11.1109C11.1032 10.5892 11.0688 10.5313 11.0596 10.6273Z" fill="white"/>
<path d="M10.5098 4.90793L12.9523 2.479C12.8926 2.43289 12.8138 2.40788 12.7528 2.36337L10.5929 4.50871C10.6148 4.59217 10.4894 4.82246 10.5098 4.90793Z" fill="white"/>
<path d="M10.1545 2.84555V-8.84111C9.93018 -8.9037 9.70182 -8.95674 9.46979 -9V1.82272C9.72454 2.09775 9.95289 2.44319 10.1545 2.84555Z" fill="white"/>
<path d="M11.0055 7.47563H25.8729C25.8334 7.24484 25.7852 7.01731 25.7262 6.79382H12.0098L14.5903 4.22344C14.3407 3.86844 14.0634 3.53459 13.7604 3.22525L10.8593 6.11503C10.9362 6.63143 10.9707 6.93133 11.0055 7.47563Z" fill="white"/>
<path d="M10.4672 13.3333L12.5619 15.4165C12.9041 15.1818 13.2235 14.9221 13.5242 14.6386L10.7835 11.9078C10.6971 12.4062 10.5947 12.8877 10.4672 13.3333Z" fill="white"/>
<path d="M9.46991 15.7646V17.6469C9.70191 17.5817 9.93016 17.501 10.1546 17.4062V14.7034C9.95288 15.313 9.72453 15.3486 9.46991 15.7646Z" fill="white"/>
<path d="M10.8593 6.11503L13.7534 3.24962C13.4961 2.98639 13.2441 2.70465 12.9522 2.479L10.6466 4.77167C10.7465 5.18723 10.7918 5.66289 10.8593 6.11503Z" fill="#E51D35"/>
<path d="M7.59558 0.954083C7.72878 0.923523 7.86157 0.907363 7.99447 0.907363C7.8608 0.907363 7.72777 0.923523 7.59558 0.954083Z" fill="#D32030"/>
<path d="M7.99447 16.8667C7.86155 16.8667 7.72875 16.8494 7.59583 16.8189C7.72801 16.8506 7.8608 16.8667 7.99447 16.8667Z" fill="#D32030"/>
<path d="M7.99451 16.8846C8.49891 16.8846 8.99147 16.8314 9.46988 16.7338V15.7299C9.04993 16.2261 8.55866 16.8846 7.99451 16.8846Z" fill="#E51D35"/>
<path d="M16.0708 7.47563H11.0688C11.1324 8.47409 11.1247 9.50081 11.0458 10.4924H15.8728C15.9882 9.95405 16.0708 9.40145 16.0708 8.82901C16.0708 8.36918 16.1461 7.91419 16.0708 7.47563Z" fill="#E51D35"/>
<path d="M11.0595 10.6273C11.0151 11.0977 10.8603 11.4642 10.7833 11.908L13.5241 14.6386C13.7919 14.3859 14.0513 14.1122 14.282 13.8252L11.6088 11.1743L11.0595 10.6273Z" fill="#E51D35"/>
<path d="M9.46992 1.88191V0.703542C8.99164 0.616351 8.49908 0.881915 7.99451 0.881915C8.55866 0.881915 9.04993 1.43735 9.46992 1.88191Z" fill="#E51D35"/>
<path d="M10.1546 15.0859C10.6692 14.6545 10.8577 14.6315 11.2272 14.0887L10.1544 13.0222L10.1546 15.0859Z" fill="#29337A"/>
<path d="M10.1544 2.5769L10.1573 4.94029L11.5566 3.541C11.5566 3.541 10.2899 2.69039 10.1544 2.5769Z" fill="#29337A"/>
<path d="M11.2147 10.7817C11.2237 10.6856 11.2319 10.5892 11.2398 10.4924H10.9242L11.2147 10.7817Z" fill="white"/>
<path d="M10.1544 4.94501V2.59956C9.9527 2.19721 9.72448 1.85153 9.46973 1.57674V5.94332L10.8447 4.57408C10.8241 4.4886 10.8023 4.40487 10.7806 4.32141L10.1544 4.94501Z" fill="white"/>
<path d="M9.49292 7.47563H11.2627C11.228 6.93136 11.1727 6.39586 11.0958 5.87959L9.49292 7.47563Z" fill="white"/>
<path d="M9.46985 16.0704C9.7246 15.7954 9.95282 15.45 10.1545 15.0476V13.0222L10.7115 13.5768C10.8392 13.1309 10.9464 12.6546 11.033 12.1562L9.46988 10.5998L9.46985 16.0704Z" fill="white"/>
<path d="M9.46987 16.1449V10.6475L11.6784 12.7826C11.7553 12.3366 11.2184 11.3069 11.2627 10.8341L10.9242 10.4924L11.2398 10.4926C11.3186 9.49605 11.3263 8.47894 11.2627 7.47563H9.49296L11.0958 5.87959C11.0283 5.42511 10.9446 4.99182 10.8448 4.57408L9.46974 5.94333L9.46991 1.58034C9.04989 1.12484 8.55862 0.650177 7.99446 0.650177C7.86154 0.650177 7.72874 0.679514 7.59558 0.685965C7.20236 0.705658 6.81674 0.856442 6.4403 0.93072V7.45213L2.22552 3.25595C1.96838 3.52148 1.72063 3.82896 1.50172 4.12796L4.21711 6.823L4.90208 7.47563H0.0903931C0.0154226 7.9162 0 8.40067 0 8.86275C0 9.43813 0.0621097 9.99858 0.177215 10.5396H6.41634L2.39146 14.5672C2.65502 14.8263 2.93563 15.0676 3.23268 15.2883L6.4402 12.0786V16.7101C6.81661 16.7844 7.2025 16.8328 7.59571 16.8525C7.72864 16.859 7.86143 16.8626 7.99436 16.8626C8.55862 16.8626 9.04989 16.6004 9.46987 16.1449Z" fill="#E51D35"/>
</g>
</svg>
