<svg width="6" height="4" viewBox="0 0 6 4" fill="none" xmlns="http://www.w3.org/2000/svg">
<path opacity="0.65" d="M6 0.34375C6 0.421875 5.97396 0.494792 5.92188 0.5625L3.25781 3.86719C3.1901 3.95573 3.10156 4 2.99219 4C2.88281 4 2.79427 3.95573 2.72656 3.86719L0.078125 0.570312C0.0208333 0.497396 -0.00260417 0.414062 0.0078125 0.320312C0.0182292 0.226562 0.0598958 0.151042 0.132812 0.09375C0.205729 0.0364583 0.289062 0.0130208 0.382812 0.0234375C0.476562 0.0338542 0.552083 0.0755208 0.609375 0.148438L2.99219 3.10938L5.39062 0.132812C5.44792 0.0598958 5.52344 0.0182292 5.61719 0.0078125C5.71094 -0.00260417 5.79427 0.0208333 5.86719 0.078125C5.95573 0.145833 6 0.234375 6 0.34375Z" fill="white"/>
</svg>
