<svg width="100" height="100" viewBox="0 0 100 100" fill="none" xmlns="http://www.w3.org/2000/svg">
<circle cx="50" cy="50" r="50" fill="white"/>
<path fill-rule="evenodd" clip-rule="evenodd" d="M64.2639 31.758C62.1743 28.7527 60.0543 26.2883 60.0332 26.2641C59.8888 26.0967 59.6786 26.0004 59.4574 26.0004C59.2362 26.0004 59.026 26.0967 58.8816 26.2641C58.8605 26.2887 56.7405 28.7531 54.6509 31.758C51.7855 35.8791 50.3326 39.0301 50.3326 41.1234C50.3326 46.2014 54.4259 50.3327 59.4574 50.3327C64.4888 50.3327 68.5821 46.2014 68.5821 41.1234C68.5821 39.0301 67.1293 35.8791 64.2639 31.758ZM59.4574 47.2911C59.0374 47.2911 58.697 46.9506 58.697 46.5307C58.697 46.1107 59.0374 45.7703 59.4574 45.7703C59.8773 45.7703 60.2178 46.1107 60.2178 46.5307C60.2178 46.9506 59.8773 47.2911 59.4574 47.2911ZM61.8789 45.9991C62.122 46.3416 62.5967 46.4221 62.9392 46.179C64.5728 45.0136 65.542 43.1301 65.5406 41.1234C65.5406 40.7035 65.2001 40.363 64.7802 40.363C64.3602 40.363 64.0198 40.7035 64.0198 41.1234C64.0216 42.6375 63.291 44.059 62.0588 44.9389C61.7164 45.182 61.6358 45.6567 61.8789 45.9991Z" fill="#C7BB91"/>
<path d="M73.8185 64.4279C73.81 64.411 73.8014 64.3941 73.7927 64.3773C72.6706 62.2072 69.9612 61.4087 67.8054 62.5585L61.2913 66.0326C61.2492 66.0551 61.2058 66.0767 61.1609 66.097L53.1154 69.754L68.3505 74.6293C68.7075 74.7435 69.0946 74.5804 69.2623 74.2451C69.7431 73.2832 69.783 72.1601 69.3714 71.1666C68.9599 70.1731 68.1375 69.4071 67.1174 69.067C67.109 69.0642 67.1007 69.0616 67.0923 69.0591L63.1845 67.9053L73.3188 65.5207C73.6457 65.4435 73.8835 65.1614 73.9044 64.8262C73.9119 64.6882 73.8823 64.5506 73.8185 64.4279Z" fill="#C7BB91"/>
<path d="M60.5757 64.6908L71.9816 58.6076C72.26 58.4588 72.4179 58.1538 72.3786 57.8406C72.3605 57.7054 72.3071 57.5773 72.2237 57.4693C72.2101 57.4512 72.1964 57.4333 72.1827 57.4156C70.4689 55.2009 67.1997 54.9779 65.1338 56.8682C62.668 59.1243 57.9005 63.4706 57.9005 63.4706C57.6161 63.714 57.2764 63.8839 56.9111 63.9654L50.4296 64.6852C50.2113 64.7094 49.9931 64.6395 49.8294 64.493C49.6658 64.3465 49.5723 64.1373 49.5723 63.9176C49.5725 63.5339 49.8543 63.2085 50.234 63.1534C52.3683 62.8419 56.8262 62.3885 56.9108 62.316L65.3179 54.6724C65.4605 54.5298 65.5406 54.3364 65.5406 54.1348C65.5406 53.9331 65.4605 53.7397 65.3179 53.5971C63.7782 52.061 61.2922 52.0404 59.7273 53.5507L54.5963 57.2157L52.6473 57.5405C50.1457 55.4251 47.3038 53.0241 47.0118 52.7855C44.6329 50.842 41.6958 49.6824 38.282 49.339C35.2847 49.0374 32.012 49.3976 28.8179 50.3803L28.8051 50.3844L26.5239 51.1308C26.2114 51.2331 26 51.5246 26 51.8535V60.2178C26 60.6378 26.3404 60.9782 26.7604 60.9782H31.1509C31.1509 60.9782 47.178 68.5822 47.2911 68.5822H52.1682L60.5374 64.7098L60.5757 64.6908Z" fill="#C7BB91"/>
</svg>
