<svg width="100" height="100" viewBox="0 0 100 100" fill="none" xmlns="http://www.w3.org/2000/svg">
<circle cx="50" cy="50" r="50" fill="white"/>
<path d="M30.8499 37.4983C32.5953 41.5581 35.542 45.5735 39.6654 47.3043C40.1361 47.5004 40.6705 47.6475 41.2197 47.7701C42.3179 46.1325 43.578 44.8038 45.0538 43.7154C46.3236 42.7838 47.6523 42.0532 49.0202 41.4796C48.628 41.205 48.2162 40.9549 47.7847 40.7294C46.0686 39.8322 44.2105 39.0428 42.4012 38.1946C44.1025 38.6554 46.0539 38.8271 47.6817 39.4203C48.6966 39.793 49.6331 40.3078 50.5058 40.9207C53.1093 40.0332 55.8305 39.6066 58.5467 39.2831C56.3453 35.6255 51.6482 32.6886 48.1083 31.3599C44.4114 29.9723 40.2243 29.8007 36.1107 29.3742C33.5906 29.1143 30.8498 28.173 28.8445 27.0747C28.3886 26.8246 27.9032 27.2414 28.0601 27.7464C29.0456 30.899 29.5457 34.4683 30.8499 37.4983Z" fill="#C7BB91"/>
<path d="M74.3147 37.0179C69.6765 39.538 64.3567 39.8469 59.1449 40.4451C56.6004 40.7393 54.0802 41.102 51.6826 41.8277C51.1629 41.9846 50.6432 42.1611 50.1332 42.3572C48.6182 42.9358 47.1571 43.6958 45.7794 44.7107C44.485 45.6618 43.426 46.7895 42.5337 48.03C41.1118 50.0107 40.1214 52.2906 39.3075 54.6588C37.8219 58.9586 37.1404 63.5282 37.2728 68.0733C37.3267 69.9168 37.3561 71.8339 37.8121 73.6332C37.9151 74.0304 38.0131 74.5353 38.322 74.8295C38.7241 75.2168 39.4448 74.8197 39.283 74.2559C38.1161 70.2796 38.8417 65.6316 40.4548 61.8318C42.3081 57.4632 45.8873 54.8647 50.2607 53.281C51.4227 52.8594 52.6093 52.4917 53.8154 52.1436C53.8399 52.1338 53.8644 52.1338 53.8889 52.1338C54.1292 52.1338 54.2321 52.4868 53.9821 52.5996C52.5602 53.2419 51.1482 53.8891 49.8047 54.5902C43.2249 58.0223 40.3518 66.0141 42.818 66.0141C43.019 66.0141 43.2543 65.9602 43.524 65.8474C47.3287 64.2735 51.8492 64.2589 56.0315 63.4842C57.5023 63.2145 58.934 62.8468 60.2775 62.2879C65.6119 60.0619 69.4264 55.7081 71.6964 50.4717C73.3879 46.5641 74.0449 41.9504 75.3246 37.8907C75.4913 37.371 75.1236 36.9249 74.6725 36.9249C74.5599 36.9199 74.4373 36.9493 74.3147 37.0179Z" fill="#C7BB91"/>
</svg>
