<svg width="100" height="100" viewBox="0 0 100 100" fill="none" xmlns="http://www.w3.org/2000/svg">
<circle cx="50" cy="50" r="50" fill="white"/>
<path d="M29.847 47.5764C27.1743 47.5764 25 49.7507 25 52.4235C25 55.0964 27.1743 57.2706 29.847 57.2706C32.5198 57.2706 34.6941 55.0963 34.6941 52.4235C34.6941 49.7508 32.5198 47.5764 29.847 47.5764Z" fill="#C7BB91"/>
<path d="M47.6197 26.0338C44.9469 26.0338 42.7727 28.2081 42.7727 30.8808C42.7727 33.5537 44.947 35.7279 47.6197 35.7279C50.2925 35.7279 52.4668 33.5536 52.4668 30.8808C52.4668 28.2081 50.2924 26.0338 47.6197 26.0338Z" fill="#C7BB91"/>
<path d="M71.3159 60.502H43.3111V57.2706H71.3164C73.0988 57.2706 74.5483 55.8211 74.5483 54.0392C74.5483 52.2573 73.0988 50.8077 71.3164 50.8077H64.2657C63.7595 42.2096 57.3816 35.7311 54.6262 35.7311C52.2107 35.7311 51.5969 37.7116 50.5679 39.8097C49.7588 41.4595 49.5197 41.937 48.9816 43.0143L43.4814 45.7629C41.9488 46.5283 41.1446 48.5344 42.1399 50.2627C43.0341 51.8086 44.947 52.258 46.3719 51.5441L52.8347 48.3127C53.357 48.0518 53.8056 47.6322 54.1333 47.0998L55.8663 44.2788L57.0234 47.3808C57.443 48.5053 57.7022 49.6541 57.8028 50.8077H51.0124C50.1224 53.3138 47.7342 55.1162 44.9267 55.1162C42.2028 55.1162 39.8723 53.4202 38.9226 51.0307C37.7201 51.4952 36.871 52.6525 36.8608 54.0153L36.8589 54.0146C36.8589 54.3604 36.8589 58.4849 36.8589 60.502H28.2314C26.4495 60.502 25 61.9515 25 63.7334C25 65.5153 26.4602 66.9648 28.2421 66.9648V72.3504C28.2421 73.243 28.9546 73.9661 29.847 73.9661C30.7396 73.9661 31.4627 73.2429 31.4627 72.3504V66.954H33.8178C33.28 68.4691 33.9295 70.1958 35.4029 70.9325C36.965 71.7136 38.9218 71.122 39.7388 69.4872L41.0001 66.9648H58.4016V69.119C58.4016 70.9009 59.8404 72.3504 61.6223 72.3504C63.4042 72.3504 64.8536 70.9009 64.8536 69.119V66.9648H68.0958V72.3504C68.0958 73.243 68.8082 73.9661 69.7007 73.9661C70.5931 73.9661 71.3163 73.2429 71.3163 72.3504V66.9647C73.0984 66.9645 74.5477 65.5151 74.5477 63.7334C74.5478 61.9515 73.0983 60.502 71.3159 60.502Z" fill="#C7BB91"/>
</svg>
