<svg width="40" height="40" viewBox="0 0 40 40" fill="none" xmlns="http://www.w3.org/2000/svg">
<rect opacity="0.1" width="40" height="40" rx="8" fill="#C7BB91"/>
<path d="M20 11.666C15.3975 11.666 11.6667 15.3968 11.6667 19.9993C11.6667 24.1585 14.7142 27.606 18.6984 28.2318V22.4077H16.5817V19.9993H18.6984V18.1635C18.6984 16.0752 19.9417 14.9218 21.8459 14.9218C22.7575 14.9218 23.7109 15.0843 23.7109 15.0843V17.1343H22.6609C21.625 17.1343 21.3025 17.7768 21.3025 18.436V19.9993H23.6134L23.2442 22.4077H21.3025V28.2318C25.2859 27.6068 28.3334 24.1577 28.3334 19.9993C28.3334 15.3968 24.6025 11.666 20 11.666Z" fill="#C7BB91"/>
</svg>
