<svg width="40" height="40" viewBox="0 0 40 40" fill="none" xmlns="http://www.w3.org/2000/svg">
<rect opacity="0.1" width="40" height="40" rx="8" fill="#C7BB91"/>
<path d="M27.5 23.6833V26.63C27.5002 27.0677 27.1617 27.431 26.725 27.4617C26.3608 27.4867 26.0633 27.5 25.8333 27.5C18.4692 27.5 12.5 21.5308 12.5 14.1667C12.5 13.9367 12.5125 13.6392 12.5383 13.275C12.569 12.8383 12.9323 12.4998 13.37 12.5H16.3167C16.5308 12.4998 16.7103 12.6619 16.7317 12.875C16.7508 13.0667 16.7683 13.2192 16.785 13.335C16.9506 14.4908 17.29 15.6149 17.7917 16.6692C17.8708 16.8358 17.8192 17.035 17.6692 17.1417L15.8708 18.4267C16.9704 20.9887 19.0121 23.0305 21.5742 24.13L22.8575 22.335C22.9658 22.1837 23.1667 22.1314 23.335 22.2108C24.3892 22.7116 25.513 23.0501 26.6683 23.215C26.7842 23.2317 26.9367 23.25 27.1267 23.2683C27.3394 23.2901 27.5011 23.4695 27.5008 23.6833H27.5Z" fill="#C7BB91"/>
</svg>
