<svg width="16" height="16" viewBox="0 0 16 16" fill="none" xmlns="http://www.w3.org/2000/svg">
<g opacity="0.45">
<path d="M14 10.9467V13.304C14.0002 13.6542 13.7293 13.9448 13.38 13.9693C13.0887 13.9893 12.8507 14 12.6667 14C6.77533 14 2 9.22467 2 3.33333C2 3.14933 2.01 2.91133 2.03067 2.62C2.05518 2.27066 2.3458 1.99984 2.696 2H5.05333C5.22465 1.99983 5.3682 2.12954 5.38533 2.3C5.40067 2.45333 5.41467 2.57533 5.428 2.668C5.56049 3.59262 5.832 4.49189 6.23333 5.33533C6.29667 5.46867 6.25533 5.628 6.13533 5.71333L4.69667 6.74133C5.5763 8.79097 7.2097 10.4244 9.25933 11.304L10.286 9.868C10.3726 9.74693 10.5334 9.70512 10.668 9.76867C11.5113 10.1692 12.4104 10.4401 13.3347 10.572C13.4273 10.5853 13.5493 10.6 13.7013 10.6147C13.8715 10.6321 14.0009 10.7756 14.0007 10.9467H14Z" fill="white"/>
</g>
</svg>
