<svg width="100" height="100" viewBox="0 0 100 100" fill="none" xmlns="http://www.w3.org/2000/svg">
<circle cx="50" cy="50" r="50" fill="#C7BB91" fill-opacity="0.1"/>
<path d="M77.7433 49.9212L70.0478 28.7781C69.6624 27.7192 68.8877 26.8738 67.8665 26.3975C66.8452 25.9214 65.6995 25.8712 64.6407 26.2566L61.5574 27.3788C60.8275 27.6444 60.4512 28.4514 60.7169 29.1812L70.3361 55.6102C70.6017 56.34 71.4087 56.7163 72.1386 56.4507L75.222 55.3285C76.2809 54.9431 77.1262 54.1683 77.6026 53.147C78.0787 52.1257 78.1288 50.9801 77.7433 49.9212Z" fill="#C7BB91"/>
<path d="M36.5625 46.8125H60C61.0356 46.8125 61.875 45.9731 61.875 44.9375C61.875 43.9019 61.0356 43.0625 60 43.0625H36.5625C35.5269 43.0625 34.6875 43.9019 34.6875 44.9375C34.6875 45.9731 35.5269 46.8125 36.5625 46.8125Z" fill="#C7BB91"/>
<path d="M41.0856 40.2501H56.25C57.8033 40.2501 59.0625 38.991 59.0625 37.4376C59.0625 35.8843 57.8033 34.6251 56.25 34.6251H49.7866C48.1449 34.6251 46.6119 33.8047 45.7013 32.4388C45.3495 31.9112 44.6881 31.6842 44.0865 31.8848L39.9517 33.2631C38.4876 33.7511 37.5 35.1213 37.5 36.6646C37.5 38.6449 39.1053 40.2501 41.0856 40.2501Z" fill="#C7BB91"/>
<path d="M40.3125 61.8125H56.25V64.625H40.3125V61.8125Z" fill="#C7BB91"/>
<path fill-rule="evenodd" clip-rule="evenodd" d="M63.0469 51.0312V52.4972C65.0394 52.833 66.5625 54.5697 66.5625 56.6562V66.9688C66.5625 70.8458 63.4083 74 59.5312 74H37.0312C33.1542 74 30 70.8458 30 66.9688V56.6562C30 54.5697 31.5231 52.833 33.5156 52.4972V51.0312C33.5156 50.2546 34.1452 49.625 34.9219 49.625H61.6406C62.4173 49.625 63.0469 50.2546 63.0469 51.0312ZM57.6562 67.4375C58.4329 67.4375 59.0625 66.8079 59.0625 66.0312V60.4062C59.0625 59.6296 58.4329 59 57.6562 59H38.9062C38.1296 59 37.5 59.6296 37.5 60.4062V66.0312C37.5 66.8079 38.1296 67.4375 38.9062 67.4375H57.6562Z" fill="#C7BB91"/>
</svg>
