<svg width="100" height="100" viewBox="0 0 100 100" fill="none" xmlns="http://www.w3.org/2000/svg">
<circle cx="50" cy="50" r="50" fill="#C7BB91" fill-opacity="0.1"/>
<path d="M38.8863 58.8856C38.7893 57.9637 39.0896 57.0396 39.7101 56.3504C40.3328 55.6587 41.2239 55.2621 42.155 55.2621C42.2668 55.2621 42.3798 55.2678 42.4911 55.2793C44.1797 55.4518 47.7151 56.023 51.1546 57.891C52.2741 54.3188 54.2792 51.5701 55.3217 50.3051C55.9493 49.5437 56.8746 49.1072 57.8607 49.1072C58.8468 49.1072 59.7723 49.5438 60.3996 50.3052C61.4403 51.5678 63.4405 54.3092 64.561 57.8726C65.6709 57.2728 66.7897 56.8082 67.8529 56.4475C69.3478 53.6995 70.2817 50.6021 70.4991 47.3087C70.5525 46.5012 69.9044 45.8193 69.095 45.8193H27.4531C26.6437 45.8193 25.9957 46.5012 26.049 47.3087C26.6567 56.5143 32.8575 64.1906 41.2843 66.9735C39.5902 63.7282 39.0538 60.4777 38.8863 58.8856Z" fill="#C7BB91"/>
<path d="M44.4412 71.2941C44.173 71.0298 43.9176 70.759 43.6743 70.4831C41.8144 70.1379 40.0067 69.5855 38.2821 68.8364V72.5938C38.2821 73.3705 38.9117 74.0001 39.6884 74.0001H48.0822C46.8153 73.2909 45.5674 72.4041 44.4412 71.2941Z" fill="#C7BB91"/>
<path d="M50.3483 62.9574C50.3483 62.2071 50.4033 61.4743 50.5023 60.7628C47.2115 58.7629 43.5795 58.2177 42.2053 58.0773C41.9047 58.0465 41.6522 58.2953 41.6835 58.5916C41.8647 60.3146 42.7101 65.6393 46.4154 69.2908C48.5908 71.4347 51.3513 72.6068 53.614 73.2457C52.0706 70.8157 50.3483 67.163 50.3483 62.9574Z" fill="#C7BB91"/>
<path d="M73.4756 58.0773C72.1065 58.2171 68.4965 58.7586 65.2155 60.7401C65.3165 61.4587 65.373 62.199 65.373 62.9574C65.373 67.1547 63.6574 70.8016 62.1163 73.2316C64.3697 72.5897 67.106 71.419 69.2655 69.2907C72.9707 65.6392 73.8162 60.3145 73.9975 58.5915C74.0286 58.2953 73.7761 58.0466 73.4756 58.0773Z" fill="#C7BB91"/>
<path d="M62.5605 62.9575C62.5605 68.133 59.3234 72.4952 58.2223 73.8294C58.0344 74.0569 57.6869 74.0569 57.4991 73.8294C56.398 72.4952 53.1609 68.133 53.1609 62.9575C53.1609 57.7928 56.3845 53.438 57.4922 52.094C57.6836 51.8619 58.038 51.8619 58.2293 52.094C59.337 53.438 62.5605 57.7928 62.5605 62.9575Z" fill="#C7BB91"/>
<path d="M43.5604 43.007L38.5652 33.2028L39.742 32.6932C41.4112 31.9704 42.1784 30.0312 41.4556 28.362L41.2927 27.9858C40.5699 26.3165 38.6306 25.5492 36.9614 26.272L27.9857 30.1586C26.3164 30.8814 25.5492 32.8207 26.272 34.4899L26.435 34.8662C27.1578 36.5354 29.097 37.3027 30.7662 36.5798L31.943 36.0703L34.4442 43.007H43.5604Z" fill="#C7BB91"/>
</svg>
