<svg width="100" height="100" viewBox="0 0 100 100" fill="none" xmlns="http://www.w3.org/2000/svg">
<circle cx="50" cy="50" r="50" fill="#C7BB91" fill-opacity="0.1"/>
<path fill-rule="evenodd" clip-rule="evenodd" d="M27.4062 45.6875H66.9688C67.7462 45.6875 68.375 46.3167 68.375 47.0938C68.375 59.7101 60.9343 68.375 50 68.375H44.375C33.441 68.375 26 59.7101 26 47.0938C26 46.3167 26.6292 45.6875 27.4062 45.6875ZM48.5938 56.9375H50C50.7775 56.9375 51.4062 56.3087 51.4062 55.5312C51.4062 54.7542 50.7775 54.125 50 54.125H48.5938V52.7188C48.5938 51.9417 47.965 51.3125 47.1875 51.3125C46.4104 51.3125 45.7812 51.9417 45.7812 52.7188V54.125H44.375C43.5979 54.125 42.9688 54.7542 42.9688 55.5312C42.9688 56.3087 43.5979 56.9375 44.375 56.9375H45.7812V58.3438C45.7812 59.1212 46.4104 59.75 47.1875 59.75C47.965 59.75 48.5938 59.1212 48.5938 58.3438V56.9375Z" fill="#C7BB91"/>
<path d="M43.3906 30.5282C41 28.1376 32.2812 26.3655 30.5937 26.0561C30.1436 25.9718 29.6657 26.1125 29.3563 26.4501C29.0186 26.7596 28.8784 27.2375 28.9626 27.6875C29.2717 29.375 31.0438 38.0938 33.4344 40.4844C35.7342 42.7377 39.1209 43.1285 41.7031 41.6936C40.4997 39.2294 39.0195 38.2157 37.4283 36.4909C36.8658 35.9562 36.8658 35.0564 37.4283 34.5221C37.9622 33.9596 38.8624 33.9596 39.3967 34.5221C40.7304 35.9529 42.389 37.0787 43.9253 39.8941C44.9375 38.6003 45.4436 37.0534 45.4436 35.5065C45.4436 33.7062 44.769 31.9063 43.3906 30.5282Z" fill="#C7BB91"/>
<path d="M41.7031 41.6936C41.7595 41.8064 41.8159 41.947 41.8719 42.0594C42.2616 42.8387 43.1768 43.0387 43.7283 42.7626C44.4314 42.4249 44.769 41.5812 44.4314 40.8781C44.2908 40.5408 44.1219 40.2031 43.9253 39.894C43.3324 40.5854 42.7509 41.1699 41.7031 41.6936Z" fill="#C7BB91"/>
<path d="M50 71.1877H44.375C42.1353 71.1877 40.0229 70.8578 38.0557 70.251C37.6071 70.9215 37.3438 71.7268 37.3438 72.594C37.3438 73.3707 37.9733 74.0002 38.75 74.0002H55.625C56.4017 74.0002 57.0312 73.3707 57.0312 72.594C57.0312 71.7268 56.7679 70.9215 56.3193 70.251C54.3521 70.8578 52.2397 71.1877 50 71.1877Z" fill="#C7BB91"/>
<path d="M72.3517 27.6477C70.1551 25.4508 66.5937 25.4508 64.3972 27.6477C62.2003 29.8442 62.2003 33.4056 64.3972 35.6021C66.5937 37.799 70.1551 37.799 72.3517 35.6021C74.5486 33.4056 74.5486 29.8442 72.3517 27.6477Z" fill="#C7BB91"/>
<path d="M51.1788 42.8749H62.1414L65.1132 39.4076C64.1152 38.989 63.1968 38.3789 62.408 37.5905C61.6199 36.8024 61.0105 35.8843 60.5923 34.8867L51.1788 42.8749Z" fill="#C7BB91"/>
</svg>
