<svg width="100" height="100" viewBox="0 0 100 100" fill="none" xmlns="http://www.w3.org/2000/svg">
<circle cx="50" cy="50" r="50" fill="#C7BB91" fill-opacity="0.1"/>
<path d="M72.5938 62.6562H71.1875V59.8438H51.4062V62.6562H50C49.2227 62.6562 48.5938 63.2852 48.5938 64.0625C48.5938 68.0683 50.8198 71.7629 54.4028 73.5551L54.996 73.8517C55.191 73.9492 55.4067 74 55.625 74H66.9688C67.1871 74 67.4027 73.9492 67.5977 73.8517L68.191 73.5551C71.7739 71.7629 74 68.0683 74 64.0625C74 63.2852 73.371 62.6562 72.5938 62.6562Z" fill="#C7BB91"/>
<path d="M28.0276 49.8629C29.1484 45.6658 31.7894 42.1422 35.3423 39.9194C31.6093 39.05 28.8125 35.7129 28.8125 31.7186C28.8125 31.713 28.814 31.7079 28.814 31.7021C27.0193 34.1008 26 37.0091 26 40.0215C26 41.8233 26.1222 42.3094 27.6246 48.2599L28.0276 49.8629Z" fill="#C7BB91"/>
<path d="M60.149 48.4678C60.412 47.8002 60.8487 47.2165 61.4076 46.7566C62.5528 42.2574 62.6562 41.6456 62.6562 40.0156C62.6562 32.3374 56.4126 26 48.7344 26H37.25C34.1739 26 31.625 28.6063 31.625 31.7188C31.625 34.8124 34.1563 37.3438 37.25 37.3438H44.375C51.6382 37.3438 57.791 41.9975 60.149 48.4678Z" fill="#C7BB91"/>
<path d="M48.5938 60.1028V58.4375C48.5938 58.4352 48.5944 58.433 48.5944 58.4308C48.594 57.8729 48.7089 57.3082 48.9276 56.7935C48.9281 56.7921 48.9282 56.791 48.9288 56.7896C50.2568 53.6571 53.4442 51.1193 57.2469 50.1689L57.7341 50.0471C55.9438 44.3379 50.6666 40.1562 44.375 40.1562C36.591 40.1562 30.2188 46.4592 30.2188 54.2188C30.2188 61.993 36.6118 74 44.375 74C45.9382 74 47.4368 73.4998 48.8418 72.6648C46.8933 70.3225 45.7812 67.2472 45.7812 64.0625C45.7812 62.2316 46.9604 60.6852 48.5938 60.1028Z" fill="#C7BB91"/>
<path d="M64.6914 48.7419C64.2589 48.525 63.7384 48.5469 63.3236 48.8037C62.9089 49.0591 62.6562 49.5123 62.6562 49.9998C62.6562 51.0092 61.9723 51.8853 60.9932 52.1311L57.9293 52.8975C55.3903 53.532 53.22 55.1182 52.0389 57.0311H70.9793C70.3302 53.4816 67.9597 50.3768 64.6914 48.7419Z" fill="#C7BB91"/>
</svg>
