<svg width="78" height="88" viewBox="0 0 78 88" fill="none" xmlns="http://www.w3.org/2000/svg">
<path fill-rule="evenodd" clip-rule="evenodd" d="M7.16632 73.9113C7.78464 73.9113 8.33643 73.8142 8.8217 73.6201C9.30696 73.426 9.68852 73.1406 9.96638 72.764C10.2442 72.3874 10.3832 71.939 10.3832 71.4188C10.3832 70.883 10.254 70.452 9.99573 70.1259C9.73744 69.7998 9.42632 69.5552 9.06238 69.3921C8.69843 69.2291 8.23469 69.066 7.67115 68.9029C7.10762 68.7399 6.69084 68.5826 6.42081 68.4312C6.15079 68.2798 6.01577 68.0605 6.01577 67.7732C6.01577 67.548 6.10969 67.3772 6.29754 67.2607C6.48538 67.1442 6.73976 67.086 7.06066 67.086C7.39721 67.086 7.80225 67.1617 8.27578 67.3131C8.7493 67.4645 9.19739 67.6683 9.62004 67.9246L10.3362 66.3988C9.91355 66.127 9.42828 65.9096 8.8804 65.7465C8.33252 65.5835 7.77681 65.502 7.21328 65.502C6.57931 65.502 6.0236 65.601 5.54616 65.799C5.06872 65.997 4.69695 66.2804 4.43084 66.6492C4.16472 67.018 4.03167 67.447 4.03167 67.9362C4.03167 68.4642 4.16081 68.8874 4.4191 69.2058C4.67738 69.5241 4.98459 69.761 5.34071 69.9163C5.69683 70.0716 6.15666 70.2269 6.72019 70.3821C7.11153 70.4909 7.41874 70.5879 7.6418 70.6733C7.86487 70.7587 8.0488 70.8694 8.19359 71.0053C8.33839 71.1412 8.41079 71.3139 8.41079 71.5236C8.41079 71.7876 8.30317 71.9895 8.08793 72.1292C7.87269 72.269 7.57332 72.3389 7.1898 72.3389C6.74367 72.3389 6.25058 72.2263 5.71053 72.0011C5.17047 71.7759 4.69303 71.477 4.27821 71.1043L3.53857 72.6068C4.00819 73.0105 4.56389 73.3289 5.20569 73.5618C5.8475 73.7948 6.50104 73.9113 7.16632 73.9113ZM13.5412 73.8064V71.477H15.1731C16.2141 71.477 17.0222 71.2149 17.5975 70.6908C18.1728 70.1667 18.4604 69.431 18.4604 68.4836C18.4604 67.5829 18.1747 66.886 17.6034 66.393C17.032 65.8999 16.2219 65.6534 15.1731 65.6534H11.6863V73.8064H13.5412ZM13.5413 69.9397H15.0792C15.6036 69.9397 16.0048 69.8213 16.2826 69.5844C16.5605 69.3476 16.6994 69.0001 16.6994 68.542C16.6994 68.0916 16.5605 67.7519 16.2826 67.5229C16.0048 67.2938 15.6036 67.1793 15.0792 67.1793H13.5413V69.9397ZM19.4583 73.8064L20.1041 72.2224H23.9079L24.5536 73.8064H26.5377L23.0274 65.6534H21.1137L17.5447 73.8064H19.4583ZM20.7145 70.7433H23.3091L22.0176 67.5753L20.7145 70.7433Z" fill="#0A0B09"/>
<path fill-rule="evenodd" clip-rule="evenodd" d="M30.6721 74.2871C31.5358 74.2871 32.197 74.107 32.6556 73.7468C33.1142 73.3866 33.3435 72.8653 33.3435 72.1828C33.3435 71.0833 32.6499 70.3231 31.2626 69.9023C32.4244 69.4701 33.0053 68.744 33.0053 67.7241C33.0053 67.1251 32.7788 66.6663 32.326 66.3478C31.8731 66.0294 31.2225 65.8701 30.374 65.8701H28.1727V74.2871H30.6721ZM29.7492 69.5669H29.3651V66.7631H29.8352C31.1269 66.7631 31.7728 67.1764 31.7728 68.0029C31.7728 68.4996 31.596 68.8844 31.2425 69.1574C30.889 69.4304 30.3912 69.5669 29.7492 69.5669ZM29.3651 73.3943H29.6116C30.4944 73.3943 31.0658 73.3393 31.3256 73.2294C31.8225 73.0209 32.0709 72.6341 32.0709 72.0692C32.0709 71.5687 31.8454 71.1526 31.3944 70.8209C30.9435 70.4891 30.3798 70.3233 29.7033 70.3233H29.3651V73.3943ZM39.913 74.2871V73.3942H36.1295V70.3459H39.0932V69.4644H36.1295V66.763H39.6665V65.8701H34.9257V74.2871H39.913ZM42.3435 71.9553L41.4091 74.2871H40.2913L43.6563 65.8701H44.8487L48.1621 74.2871H46.8608L45.9379 71.9553H42.3435ZM45.5883 71.0682H42.6934L44.1437 67.4398L45.5883 71.0682ZM54.4608 73.7127C53.985 74.2359 53.2273 74.4975 52.1878 74.4975C51.1292 74.4975 50.3477 74.2264 49.8432 73.6842C49.3388 73.1421 49.0865 72.3042 49.0865 71.1705V65.8701H50.2904V71.1819C50.2904 72.0274 50.448 72.6425 50.7633 73.0274C51.0786 73.4122 51.5802 73.6046 52.2681 73.6046C52.9407 73.6046 53.4175 73.4236 53.6984 73.0615C53.9793 72.6994 54.1197 72.0862 54.1197 71.2217V65.8701H55.1745V71.2046C55.1745 72.3534 54.9366 73.1895 54.4608 73.7127ZM60.5115 74.2871V66.763H63.5211V65.8701H56.2981V66.763H59.3077V74.2871H60.5115ZM67.7516 70.7497V74.2871H66.5478V70.7724L63.7159 65.8701H65.0917L67.293 69.6691L69.6663 65.8701H70.7842L67.7516 70.7497Z" fill="#0A0B09"/>
<path fill-rule="evenodd" clip-rule="evenodd" d="M47.5285 27.4312C48.6401 26.1179 49.8277 24.9083 51.0672 23.7767C49.7973 14.3722 45.1484 6.02963 38.3606 0C31.5702 6.02963 26.9239 14.3722 25.6533 23.7779C26.8935 24.9083 28.081 26.1179 29.1913 27.4312C36.5757 36.1633 39.4195 47.1644 38.0008 57.6339C38.1218 57.7445 38.2383 57.862 38.3606 57.9701C38.4828 57.862 38.5981 57.7445 38.719 57.6339C37.3003 47.1644 40.1441 36.1633 47.5285 27.4312Z" fill="#97D0CE"/>
<path fill-rule="evenodd" clip-rule="evenodd" d="M25.2911 28.9851C25.2911 27.2175 25.4247 25.4826 25.6534 23.7779C18.5692 17.3166 9.55509 13.8544 0.400407 13.5623C-1.12854 24.1323 1.70578 35.2773 9.16874 44.1C16.6317 52.9251 27.2026 57.6277 37.9597 57.9701C37.9762 57.8583 37.9857 57.7452 38.0009 57.6339C30.1934 50.5229 25.2911 40.3261 25.2911 28.9851Z" fill="#A6DDDB"/>
<path fill-rule="evenodd" clip-rule="evenodd" d="M29.1914 27.431C28.0811 26.1178 26.8936 24.9082 25.6534 23.7778C25.4248 25.4825 25.2911 27.2174 25.2911 28.985C25.2911 40.326 30.1934 50.5228 38.0009 57.6338C39.4197 47.1643 36.5758 36.1632 29.1914 27.431Z" fill="#97D0CE"/>
<mask id="mask0" mask-type="alpha" maskUnits="userSpaceOnUse" x="38" y="13" width="39" height="45">
<path fill-rule="evenodd" clip-rule="evenodd" d="M76.3196 13.5623C67.1649 13.8544 58.1508 17.3166 51.0672 23.7767C51.2978 25.4826 51.4302 27.2175 51.4302 28.9851C51.4302 40.3261 46.5266 50.5229 38.7191 57.6339C38.7343 57.7452 38.7438 57.8583 38.7603 57.9701C49.5174 57.6277 60.0883 52.9251 67.5525 44.1C75.0142 35.2773 77.8485 24.1323 76.3196 13.5623Z" fill="white"/>
</mask>
<g mask="url(#mask0)">
<path fill-rule="evenodd" clip-rule="evenodd" d="M76.3196 13.5623C67.1649 13.8544 58.1508 17.3166 51.0672 23.7767C51.2978 25.4826 51.4302 27.2175 51.4302 28.9851C51.4302 40.3261 46.5266 50.5229 38.7191 57.6339C38.7343 57.7452 38.7438 57.8583 38.7603 57.9701C49.5174 57.6277 60.0883 52.9251 67.5525 44.1C75.0142 35.2773 77.8485 24.1323 76.3196 13.5623Z" fill="#A6DDDB"/>
</g>
<path fill-rule="evenodd" clip-rule="evenodd" d="M51.4301 28.985C51.4301 27.2174 51.2978 25.4826 51.0672 23.7766C49.8277 24.9083 48.6402 26.1178 47.5286 27.4311C40.1442 36.1632 37.3004 47.1643 38.7191 57.6339C46.5266 50.5229 51.4301 40.326 51.4301 28.985Z" fill="#97D0CE"/>
<path fill-rule="evenodd" clip-rule="evenodd" d="M15.121 88C15.8609 88 16.4552 87.8173 16.9039 87.4518C17.3525 87.0863 17.5769 86.6022 17.5769 85.9993C17.5769 85.5745 17.4572 85.2106 17.2179 84.9076C16.9786 84.6046 16.5567 84.2828 15.9522 83.9424L15.4516 83.6612C15.0171 83.4145 14.7179 83.2021 14.5542 83.024C14.3905 82.846 14.3086 82.6414 14.3086 82.4102C14.3086 82.1353 14.4204 81.9073 14.6439 81.7261C14.8675 81.545 15.1509 81.4544 15.4941 81.4544C15.8562 81.4544 16.4056 81.5981 17.1424 81.8854V80.9858C16.5441 80.8078 15.9758 80.7188 15.4374 80.7188C14.8329 80.7188 14.3354 80.8913 13.945 81.2365C13.5545 81.5817 13.3593 82.0213 13.3593 82.5555C13.3593 82.9522 13.4813 83.2997 13.7253 83.598C13.9694 83.8963 14.3889 84.2141 14.984 84.5515L15.4657 84.8279C15.8845 85.0622 16.1718 85.2746 16.3277 85.4651C16.4835 85.6557 16.5615 85.8868 16.5615 86.1586C16.5615 86.4897 16.4426 86.7568 16.2049 86.9598C15.9672 87.1629 15.6531 87.2644 15.2627 87.2644C14.7557 87.2644 14.1087 87.0832 13.3215 86.7209V87.6954C14.052 87.8985 14.6518 88 15.121 88ZM23.098 87.8266V87.0909H19.9525V80.892H18.9607V87.8266H23.098ZM29.2738 87.0137C28.6787 87.6712 27.8726 88 26.8556 88C25.8859 88 25.1058 87.6665 24.5154 86.9996C23.9251 86.3327 23.6299 85.4511 23.6299 84.3547C23.6299 83.252 23.9267 82.3704 24.5202 81.7097C25.1137 81.0491 25.9063 80.7188 26.8982 80.7188C27.8868 80.7188 28.6787 81.0483 29.2738 81.7074C29.8689 82.3665 30.1664 83.2458 30.1664 84.3453C30.1664 85.4667 29.8689 86.3562 29.2738 87.0137ZM26.8698 87.2644C26.1866 87.2644 25.6513 87.0052 25.264 86.4866C24.8767 85.9681 24.6831 85.2559 24.6831 84.3501C24.6831 83.4411 24.8783 82.7312 25.2687 82.2205C25.6592 81.7098 26.2023 81.4544 26.8982 81.4544C27.5908 81.4544 28.1332 81.709 28.5252 82.2182C28.9172 82.7273 29.1132 83.4333 29.1132 84.336C29.1132 85.2668 28.918 85.9876 28.5276 86.4984C28.1371 87.0091 27.5845 87.2644 26.8698 87.2644ZM36.8069 87.6392C35.9599 87.8797 35.2215 88 34.5918 88C33.4804 88 32.6279 87.6861 32.0344 87.0582C31.4409 86.4304 31.1441 85.5307 31.1441 84.3594C31.1441 83.2099 31.4448 82.3157 32.0462 81.6769C32.6476 81.0381 33.4914 80.7188 34.5777 80.7188C35.2892 80.7188 36.0292 80.8234 36.7974 81.0327V81.9417C35.8339 81.6168 35.0956 81.4544 34.5824 81.4544C33.8267 81.4544 33.2403 81.7089 32.8231 82.2181C32.4059 82.7273 32.1973 83.4441 32.1973 84.3687C32.1973 85.284 32.4209 85.9954 32.868 86.503C33.3151 87.0106 33.9416 87.2644 34.7477 87.2644C35.0783 87.2644 35.4356 87.2066 35.8198 87.091V84.8326H36.8069V87.6392ZM38.644 87.8266L39.4138 85.9055H42.3751L43.1355 87.8266H44.2076L41.4777 80.892H40.4954L37.723 87.8266H38.644ZM39.702 85.1748H42.0871L40.8969 82.1854L39.702 85.1748ZM46.0685 87.8266V82.4711L49.5918 87.8266H50.56V80.892H49.7099V86.2476L46.1913 80.892H45.2184V87.8266H46.0685ZM56.4162 84.5514V87.8266H55.4244V80.892H56.4162V83.8158H59.7412V80.892H60.733V87.8266H59.7412V84.5514H56.4162ZM66.6414 87.8266V87.0909H63.5243V84.5795H65.966V83.8533H63.5243V81.6277H66.4383V80.892H62.5325V87.8266H66.6414ZM68.7574 84.8934V87.8266H67.775V80.892H69.8909C70.5615 80.892 71.0756 81.0389 71.4329 81.3325C71.7903 81.6261 71.969 82.0525 71.969 82.6116C71.969 83.5362 71.4983 84.1922 70.5568 84.5795L72.8899 87.8266H71.6714L69.6831 84.8934H68.7574ZM69.0785 84.1579H68.7573V81.6277H69.3807C70.4261 81.6277 70.9488 81.9854 70.9488 82.7007C70.9488 83.6721 70.3253 84.1579 69.0785 84.1579ZM78.0002 87.0909V87.8266H73.8912V80.892H77.7971V81.6277H74.883V83.8533H77.3248V84.5795H74.883V87.0909H78.0002Z" fill="#4B4B49"/>
</svg>
