<svg width="138" height="88" viewBox="0 0 138 88" fill="none" xmlns="http://www.w3.org/2000/svg">
<path fill-rule="evenodd" clip-rule="evenodd" d="M42.0797 31.5913C48.6461 38.4102 56.5848 41.9089 65.8888 42.1075V31.6744H65.7581C64.3025 14.1101 49.8851 0.280852 32.2047 0C32.0311 1.65463 31.9342 3.35914 31.9342 5.11354C31.9342 15.7434 35.3188 24.5663 42.0797 31.5913Z" fill="#E88E85"/>
<path fill-rule="evenodd" clip-rule="evenodd" d="M55.7999 43.6723C50.4334 43.6723 45.1756 42.3087 40.0293 39.576C31.4445 35.0195 25.5214 27.6878 22.2611 17.5854C21.7238 15.916 21.2898 14.2688 20.949 12.6354C24.3052 11.5877 27.7026 11.0889 31.0461 11.0889C31.4719 11.0889 31.8949 11.0972 32.318 11.1129C33.3789 19.1089 36.6346 25.9334 42.0798 31.5911C48.6461 38.4101 56.5848 41.9087 65.8888 42.1073C62.4832 43.1504 59.1214 43.6723 55.7999 43.6723Z" fill="#DA3E7A"/>
<path fill-rule="evenodd" clip-rule="evenodd" d="M65.8888 42.1075C56.5848 41.9089 48.6461 38.4102 42.0798 31.5912C36.6346 25.9335 33.3789 19.109 32.318 11.113C45.32 11.6064 57.3104 19.6236 62.5654 32.2278L62.6869 32.1871L65.8888 42.1075Z" fill="#D43048"/>
<path fill-rule="evenodd" clip-rule="evenodd" d="M97.3935 23.9805C100.459 18.3468 101.99 12.0276 101.99 5.03216C101.99 3.31656 101.891 1.64715 101.71 0.015625C84.3568 0.656781 70.3132 14.3483 68.8749 31.6743H68.747V42.0622C74.2853 41.7499 79.5303 40.1618 84.4765 37.2784C90.0222 34.0486 94.3278 29.6151 97.3935 23.9805Z" fill="#DE437F"/>
<path fill-rule="evenodd" clip-rule="evenodd" d="M79.205 43.7353C75.5289 43.7353 71.9333 43.1542 68.4208 41.9994L68.747 41.1495V42.0622C74.2853 41.75 79.5303 40.1619 84.4765 37.2785C90.0221 34.0487 94.3278 29.6151 97.3935 23.9805C99.2493 20.5706 100.542 16.9084 101.274 12.9977C101.852 12.9682 102.433 12.9534 103.014 12.9534C106.73 12.9534 110.505 13.5696 114.198 14.8648C113.785 16.4502 113.277 18.0438 112.663 19.6412C110.16 26.1654 106.471 31.4905 101.599 35.622C96.7246 39.7544 91.1223 42.3144 84.7954 43.2965C82.9112 43.5894 81.0481 43.7353 79.205 43.7353Z" fill="#DD887E"/>
<path fill-rule="evenodd" clip-rule="evenodd" d="M68.747 42.0621V41.1493L72.1408 32.3145L72.2614 32.3634C77.8381 20.806 89.1322 13.6258 101.274 12.9976C100.542 16.9082 99.2494 20.5704 97.3935 23.9804C94.3278 29.615 90.0222 34.0485 84.4766 37.2783C79.5304 40.1617 74.2854 41.7498 68.747 42.0621Z" fill="#D43048"/>
<path fill-rule="evenodd" clip-rule="evenodd" d="M31.1128 67.9471C32.9095 67.9471 34.3526 67.4949 35.4421 66.5905C36.5316 65.686 37.0763 64.4879 37.0763 62.996C37.0763 61.9447 36.7858 61.0442 36.2047 60.2944C35.6237 59.5446 34.5992 58.7484 33.1312 57.9058L31.9156 57.2101C30.8605 56.5994 30.1342 56.0738 29.7366 55.6332C29.339 55.1926 29.1402 54.6863 29.1402 54.1143C29.1402 53.434 29.4117 52.8697 29.9545 52.4214C30.4973 51.973 31.1854 51.7489 32.0188 51.7489C32.898 51.7489 34.2322 52.1045 36.0212 52.8156V50.5894C34.5686 50.1488 33.1886 49.9285 31.8812 49.9285C30.4132 49.9285 29.2052 50.3555 28.2572 51.2097C27.3091 52.0639 26.8351 53.1519 26.8351 54.4737C26.8351 55.4554 27.1314 56.3154 27.7239 57.0536C28.3164 57.7918 29.3352 58.5783 30.7802 59.4132L31.95 60.0973C32.9668 60.677 33.6645 61.2027 34.0429 61.6742C34.4214 62.1457 34.6106 62.7177 34.6106 63.3902C34.6106 64.2096 34.322 64.8705 33.7448 65.373C33.1675 65.8754 32.4049 66.1267 31.4568 66.1267C30.2259 66.1267 28.6548 65.6783 26.7434 64.7816V67.1934C28.5171 67.6958 29.9736 67.9471 31.1128 67.9471ZM2.40835 67.5183V59.7264H8.34893V57.9292H2.40835V52.1781H9.48429V50.3577H0V67.5183H2.40835ZM11.8231 67.5183L13.6924 62.7643H20.8831L22.7295 67.5183H25.3328L18.7041 50.3577H16.3187L9.58678 67.5183H11.8231ZM14.392 60.9555H20.1835L17.2935 53.5579L14.392 60.9555ZM42.8449 59.4134V67.5183H40.4365V50.3577H42.8449V57.593H50.9186V50.3577H53.3269V67.5183H50.9186V59.4134H42.8449ZM60.0932 67.5183V50.3577H57.6849V67.5183H60.0932ZM77.1695 65.5063C75.7245 67.1335 73.7673 67.9471 71.2977 67.9471C68.9429 67.9471 67.0487 67.1219 65.6152 65.4715C64.1817 63.8212 63.4649 61.6394 63.4649 58.9262C63.4649 56.1975 64.1855 54.0157 65.6267 52.3808C67.0678 50.7459 68.9926 49.9285 71.401 49.9285C73.8017 49.9285 75.7245 50.744 77.1695 52.375C78.6145 54.006 79.337 56.182 79.337 58.903C79.337 61.678 78.6145 63.8792 77.1695 65.5063ZM71.3322 66.1267C69.6731 66.1267 68.3733 65.4851 67.4329 64.2019C66.4925 62.9187 66.0223 61.1563 66.0223 58.9146C66.0223 56.6652 66.4964 54.9085 67.4444 53.6447C68.3925 52.3808 69.7113 51.7489 71.401 51.7489C73.083 51.7489 74.3999 52.3789 75.3518 53.6389C76.3037 54.8989 76.7796 56.6458 76.7796 58.8798C76.7796 61.1833 76.3056 62.967 75.3575 64.2309C74.4095 65.4948 73.0677 66.1267 71.3322 66.1267ZM84.773 54.2652V67.5183H82.7087V50.3577H85.0712L93.6151 63.6108V50.3577H95.6794V67.5183H93.3284L84.773 54.2652Z" fill="#0A0B09"/>
<path fill-rule="evenodd" clip-rule="evenodd" d="M103.353 67.9471C105.15 67.9471 106.593 67.4949 107.682 66.5905C108.772 65.686 109.316 64.4879 109.316 62.996C109.316 61.9447 109.026 61.0442 108.445 60.2944C107.864 59.5446 106.839 58.7484 105.371 57.9058L104.156 57.2101C103.101 56.5994 102.374 56.0738 101.977 55.6332C101.579 55.1926 101.38 54.6863 101.38 54.1143C101.38 53.434 101.652 52.8697 102.195 52.4214C102.737 51.973 103.425 51.7489 104.259 51.7489C105.138 51.7489 106.472 52.1045 108.261 52.8156V50.5894C106.809 50.1488 105.429 49.9285 104.121 49.9285C102.653 49.9285 101.445 50.3555 100.497 51.2097C99.5492 52.0639 99.0751 53.1519 99.0751 54.4737C99.0751 55.4554 99.3714 56.3154 99.9639 57.0536C100.556 57.7918 101.575 58.5783 103.02 59.4132L104.19 60.0973C105.207 60.677 105.905 61.2027 106.283 61.6742C106.661 62.1457 106.851 62.7177 106.851 63.3902C106.851 64.2096 106.562 64.8705 105.985 65.373C105.408 65.8754 104.645 66.1267 103.697 66.1267C102.466 66.1267 100.895 65.6783 98.9834 64.7816V67.1934C100.757 67.6958 102.214 67.9471 103.353 67.9471ZM115.062 67.5183V60.7004H116.129C118.3 60.7004 119.997 60.1825 121.22 59.1467C122.444 58.1109 123.055 56.6808 123.055 54.8566C123.055 53.2564 122.608 52.1066 121.714 51.407C120.819 50.7075 119.347 50.3577 117.298 50.3577H112.677V67.5183H115.062ZM115.062 58.8567H116.037C117.467 58.8567 118.571 58.5243 119.351 57.8596C120.131 57.1948 120.521 56.2556 120.521 55.042C120.521 54.0139 120.215 53.2795 119.603 52.8389C118.992 52.3983 117.971 52.178 116.541 52.178H115.062V58.8567ZM124.49 67.5183L126.36 62.7643H133.55L135.397 67.5183H138L131.371 50.3577H128.986L122.254 67.5183H124.49ZM127.059 60.9555H132.851L129.961 53.5579L127.059 60.9555Z" fill="#D23565"/>
<path fill-rule="evenodd" clip-rule="evenodd" d="M66.6633 88C67.5753 88 68.3728 87.7368 69.0557 87.2105L69.5117 87.7663H71.2607C70.7818 87.3158 70.355 86.8506 69.9802 86.3706C70.7964 85.3685 71.2045 84.177 71.2045 82.796H69.9802L69.9864 83.2634C69.9864 84.2823 69.7969 85.0696 69.418 85.6254C68.5935 84.6612 67.871 83.6234 67.2505 82.5119C68.6039 81.8214 69.2806 81.0088 69.2806 80.0741C69.2806 79.5268 69.0859 79.0752 68.6965 78.7194C68.3072 78.3637 67.8127 78.1858 67.213 78.1858C66.5925 78.1858 66.0647 78.3763 65.6295 78.7573C65.1944 79.1384 64.9768 79.6047 64.9768 80.1562C64.9768 80.6614 65.185 81.2951 65.6014 82.0571C64.0981 82.5708 63.3465 83.5476 63.3465 84.9875C63.3465 85.8632 63.6577 86.5843 64.2803 87.1505C64.9029 87.7168 65.6972 88 66.6633 88ZM14.8141 87.7664C15.7552 87.7664 16.4756 87.5664 16.9753 87.1664C17.4751 86.7665 17.7249 86.1876 17.7249 85.4297C17.7249 84.2087 16.9691 83.3646 15.4575 82.8972C16.7234 82.4172 17.3564 81.611 17.3564 80.4784C17.3564 79.8132 17.1096 79.3037 16.6162 78.9501C16.1227 78.5964 15.4137 78.4196 14.4893 78.4196H12.0906V87.7664H14.8141ZM13.8084 82.5244H13.3899V79.4109H13.9021C15.3096 79.4109 16.0134 79.8699 16.0134 80.7877C16.0134 81.3393 15.8208 81.7666 15.4356 82.0697C15.0504 82.3729 14.508 82.5244 13.8084 82.5244ZM13.3899 86.7749H13.6585C14.6205 86.7749 15.243 86.7138 15.5262 86.5917C16.0675 86.3602 16.3382 85.9307 16.3382 85.3034C16.3382 84.7476 16.0925 84.2856 15.6011 83.9172C15.1098 83.5488 14.4955 83.3646 13.7584 83.3646H13.3899V86.7749ZM24.8833 87.7664V86.7749H20.7607V83.3898H23.9901V82.4109H20.7607V79.4111H24.6147V78.4196H19.4489V87.7664H24.8833ZM27.5318 85.1771L26.5136 87.7664H25.2956L28.9622 78.4196H30.2615L33.8719 87.7664H32.454L31.4483 85.1771H27.5318ZM31.0673 84.1919H27.9129L29.4932 80.1626L31.0673 84.1919ZM40.8874 87.1286C40.369 87.7096 39.5434 88.0001 38.4107 88.0001C37.2572 88.0001 36.4056 87.699 35.8559 87.097C35.3062 86.4949 35.0314 85.5644 35.0314 84.3056V78.4196H36.3431V84.3182C36.3431 85.2571 36.5149 85.9402 36.8585 86.3675C37.202 86.7949 37.7486 87.0086 38.4982 87.0086C39.2311 87.0086 39.7506 86.8075 40.0566 86.4054C40.3627 86.0034 40.5158 85.3223 40.5158 84.3624V78.4196H41.6651V84.3435C41.6651 85.6192 41.4059 86.5475 40.8874 87.1286ZM47.4805 87.7664V79.4111H50.7599V78.4196H42.8894V79.4111H46.1688V87.7664H47.4805ZM55.3697 83.8382V87.7664H54.058V83.8635L50.9723 78.4196H52.4714L54.87 82.6383L57.4561 78.4196H58.6741L55.3697 83.8382ZM66.2136 80.0995C66.2136 80.5289 66.4093 81.07 66.8007 81.7226C67.6836 81.3142 68.125 80.771 68.125 80.0932C68.125 79.4448 67.8043 79.1206 67.163 79.1206C66.53 79.1206 66.2136 79.4469 66.2136 80.0995ZM66.8632 87.0654C66.2261 87.0654 65.6857 86.8338 65.2422 86.3707C64.7987 85.9076 64.577 85.3455 64.577 84.6845C64.577 83.813 65.058 83.1835 66.0199 82.7962C66.8111 84.1729 67.644 85.4044 68.5185 86.4907C67.9938 86.8738 67.442 87.0654 66.8632 87.0654ZM78.3566 83.3519V87.7664H77.0449V78.4196H78.3566V82.3604H82.7541V78.4196H84.0659V87.7664H82.7541V83.3519H78.3566ZM91.8801 87.7664V86.7749H87.7575V83.3898H90.9869V82.4109H87.7575V79.4111H91.6115V78.4196H86.4457V87.7664H91.8801ZM94.5286 85.1771L93.5104 87.7664H92.2924L95.959 78.4196H97.2583L100.869 87.7664H99.4508L98.4451 85.1771H94.5286ZM98.0641 84.1919H94.9097L96.49 80.1626L98.0641 84.1919ZM107.677 86.7749V87.7664H102.205V78.4196H103.517V86.7749H107.677ZM111.552 87.7664V79.4111H114.831V78.4196H106.961V79.4111H110.24V87.7664H111.552ZM117.442 83.3519V87.7664H116.131V78.4196H117.442V82.3604H121.84V78.4196H123.152V87.7664H121.84V83.3519H117.442Z" fill="#4B4B49"/>
</svg>
