<svg width="78" height="100" viewBox="0 0 78 100" fill="none" xmlns="http://www.w3.org/2000/svg">
<path fill-rule="evenodd" clip-rule="evenodd" d="M53.1113 44.7944C42.8179 45.377 36.8116 54.5991 31.4995 56.7759C24.5418 59.626 20.1261 54.5308 22.0669 51.9227C25.3793 47.4713 30.4206 56.4607 35.3081 51.6613C41.36 45.7195 44.9759 42.5277 48.4844 41.3562C44.4367 38.6297 41.0052 34.1436 39.5198 30.7632C39.5198 30.7632 37.4273 36.7793 31.9101 40.3737C28.6592 42.4911 24.8506 43.6887 19.798 45.684C3.32065 52.1874 10.1562 68.5449 22.7664 68.5307C25.1523 68.5288 27.1279 67.9481 28.8885 67.1482C37.5405 62.32 37.6396 57.6285 43.4993 54.8848C49.837 51.9182 55.045 56.9988 53.0279 59.5491C49.3694 64.1745 45.2452 55.734 40.6138 60.5518C39.8852 61.3091 39.2189 61.9738 38.5967 62.5724C38.8988 62.5351 39.2057 62.5123 39.5198 62.5108C45.1698 62.5448 48.6069 68.5228 56.2755 68.5307C65.0289 68.5408 69.9529 59.626 67.1277 52.5698C66.0772 49.9461 63.956 47.5796 60.5626 46.0234C58.6658 45.1537 55.9538 44.6339 53.1113 44.7944Z" fill="#77A513"/>
<path fill-rule="evenodd" clip-rule="evenodd" d="M48.691 21.3928C40.2295 17.4101 44.4687 15.0227 45.7693 11.8272C46.5605 9.88304 47.151 8.46434 46.4711 5.53171C45.5774 1.67408 42.5011 -0.070635 39.6284 0.00218585C36.8541 0.0731395 34.0531 1.84847 33.0881 5.5769C32.4377 8.08978 32.9765 9.89723 33.8024 11.8272C35.0765 14.8054 39.4987 16.5792 30.881 21.3928C28.7022 22.6095 26.1097 23.5132 24.3314 24.2515C18.695 26.5896 15.3694 27.2585 16.248 30.9376C17.5075 36.2091 29.8821 36.4582 35.2466 29.2586C37.8176 25.8084 39.059 21.3645 39.7856 21.3645C40.5798 21.3645 41.07 25.3379 44.3247 29.2586C50.0625 36.1695 62.0641 36.2091 63.3232 30.9376C64.479 26.0978 58.1111 25.8271 48.691 21.3928Z" fill="#77A513"/>
<path fill-rule="evenodd" clip-rule="evenodd" d="M7.75071 89.7028V86.5786H4.67366C4.0673 86.5786 3.19509 86.4659 2.6698 86.2411C2.14376 86.0155 1.68371 85.7078 1.28889 85.3172C0.884654 84.9168 0.569029 84.4564 0.341644 83.9354C0.113881 83.4149 0 82.8543 0 82.2531V79.2939H1.66825V82.2531C1.66825 82.6135 1.73914 82.9566 1.88093 83.2819C2.02234 83.6076 2.21465 83.8932 2.45712 84.1378C2.69997 84.3836 2.98278 84.5763 3.30633 84.7163C3.62987 84.8567 4.2845 84.9265 4.65857 84.9265H12.4048C12.769 84.9265 13.1152 84.8567 13.444 84.7163C13.7725 84.5763 14.0606 84.3858 14.3083 84.1457C14.5561 83.9056 14.7506 83.6251 14.8924 83.3047C15.0338 82.9839 15.1047 82.6437 15.1047 82.283V79.2939H16.773V82.2531C16.773 82.8543 16.6591 83.4149 16.4317 83.9354C16.2043 84.4564 15.8879 84.9168 15.4837 85.3172C15.0893 85.7078 14.6292 86.0155 14.1036 86.2411C13.5779 86.4659 13.0115 86.5786 12.4048 86.5786H9.41896V89.7028H7.75071Z" fill="black"/>
<path fill-rule="evenodd" clip-rule="evenodd" d="M21.2622 85.3773C21.2622 85.7481 21.3331 86.0958 21.4749 86.421C21.6163 86.7463 21.8082 87.0294 22.0511 87.2699C22.2935 87.51 22.579 87.7004 22.9082 87.8405C23.2363 87.9809 23.5877 88.0511 23.9618 88.0511H34.3887C34.7624 88.0511 35.1139 87.9809 35.4427 87.8405C35.7711 87.7004 36.0592 87.51 36.3074 87.2699C36.5547 87.0294 36.7493 86.7463 36.8911 86.421C37.0325 86.0958 37.1034 85.7481 37.1034 85.3773V83.6049C37.1034 83.2442 37.0325 82.9014 36.8911 82.5757C36.7493 82.2504 36.5547 81.9655 36.3074 81.7198C36.0592 81.4744 35.7711 81.2821 35.4427 81.1417C35.1139 81.0017 34.7624 80.9311 34.3887 80.9311H23.9618C23.5877 80.9311 23.2363 81.0017 22.9082 81.1417C22.579 81.2821 22.2935 81.4744 22.0511 81.7198C21.8082 81.9655 21.6163 82.2504 21.4749 82.5757C21.3331 82.9014 21.2622 83.2442 21.2622 83.6049V85.3773ZM23.9618 89.7028C23.3555 89.7028 22.7864 89.5904 22.2559 89.3649C21.7249 89.1401 21.2622 88.832 20.8678 88.441C20.4734 88.0511 20.1626 87.5925 19.9353 87.0671C19.7075 86.5413 19.594 85.9781 19.594 85.3773V83.6049C19.594 83.0142 19.7075 82.4559 19.9353 81.9301C20.1626 81.4046 20.4734 80.9464 20.8678 80.5558C21.2622 80.1652 21.7249 79.8575 22.2559 79.6323C22.7864 79.4067 23.3555 79.2939 23.9618 79.2939H34.3888C34.9951 79.2939 35.5638 79.4067 36.0947 79.6323C36.6257 79.8575 37.088 80.1652 37.4824 80.5558C37.8768 80.9464 38.1879 81.4046 38.4157 81.9301C38.6427 82.4559 38.7566 83.0142 38.7566 83.6049V85.3773C38.7566 85.9781 38.6427 86.5413 38.4157 87.0671C38.1879 87.5925 37.8768 88.0511 37.4824 88.441C37.088 88.832 36.6257 89.1401 36.0947 89.3649C35.5638 89.5904 34.9951 89.7028 34.3888 89.7028H23.9618Z" fill="black"/>
<path fill-rule="evenodd" clip-rule="evenodd" d="M42.7756 88.4717C42.3808 88.0811 42.0727 87.6281 41.8506 87.1124C41.6278 86.5966 41.5169 86.0533 41.5169 85.4827V83.5449C41.5169 82.9642 41.6304 82.4163 41.8574 81.9003C42.0856 81.3845 42.3914 80.9368 42.7756 80.5559C43.1599 80.1757 43.6124 79.8725 44.1332 79.6473C44.6535 79.4221 45.2071 79.3093 45.7939 79.3093H57.9535V80.9312H45.7939C45.43 80.9312 45.0857 80.9991 44.7621 81.134C44.4386 81.2691 44.158 81.4544 43.9205 81.6896C43.6829 81.9253 43.4932 82.2009 43.3518 82.5161C43.2097 82.8312 43.1395 83.1692 43.1395 83.5299V85.4827C43.1395 85.833 43.2078 86.1661 43.3443 86.4812C43.4808 86.7964 43.6675 87.0746 43.905 87.3151C44.1426 87.5549 44.4213 87.7453 44.7395 87.8858C45.0582 88.0262 45.3994 88.096 45.7637 88.096H56.3154V85.3774H46.3697V83.7704H57.9535V89.7029H45.7939C45.2071 89.7029 44.6535 89.5931 44.1332 89.3728C43.6124 89.1528 43.1599 88.8522 42.7756 88.4717Z" fill="black"/>
<path fill-rule="evenodd" clip-rule="evenodd" d="M63.6868 85.1672C63.4439 85.3173 63.2546 85.5051 63.1177 85.7303C62.9812 85.9555 62.913 86.2087 62.913 86.4888C62.913 86.7192 62.9609 86.932 63.057 87.1273C63.1532 87.3223 63.2772 87.4903 63.4288 87.6304C63.5804 87.7708 63.7599 87.8836 63.9669 87.9683C64.174 88.0531 64.3942 88.0961 64.6268 88.0961H76.3773V84.8819H64.6725C64.2984 84.8819 63.9696 84.9771 63.6868 85.1672ZM64.6725 89.7029C64.3391 89.7029 64.0148 89.6532 63.7015 89.5532C63.3881 89.4527 63.0955 89.3179 62.8217 89.1472C62.5495 88.9769 62.3062 88.7719 62.0939 88.5314C61.882 88.2913 61.7097 88.031 61.5781 87.7506C61.4876 87.5504 61.414 87.345 61.3586 87.1344C61.3024 86.9241 61.2753 86.7094 61.2753 86.4887C61.2753 86.038 61.3658 85.6175 61.5479 85.2272C61.73 84.8366 61.9751 84.4938 62.2836 84.1984C62.5921 83.903 62.9484 83.6726 63.353 83.5075C63.7573 83.3421 64.1823 83.2596 64.6268 83.2596H76.3774V82.8843C76.3774 82.6438 76.3268 82.4164 76.2258 82.2009C76.1247 81.9854 75.9931 81.7976 75.8313 81.6374C75.6696 81.4775 75.4799 81.352 75.2627 81.262C75.0447 81.172 74.8151 81.1269 74.5722 81.1269H63.5657V79.5046H74.5722C75.0477 79.5046 75.4927 79.592 75.9071 79.7675C76.3219 79.9427 76.6854 80.1832 76.9992 80.4887C77.3125 80.7941 77.5576 81.1519 77.7345 81.5623C77.9117 81.9731 78 82.4137 78 82.8843V89.7182L64.6725 89.7029Z" fill="black"/>
<path fill-rule="evenodd" clip-rule="evenodd" d="M2.67132 96.1345V98.4069C2.67132 98.5705 2.70187 98.7217 2.76182 98.861C2.8214 99.0003 2.90587 99.1217 3.01485 99.2255C3.12345 99.3334 3.24827 99.4178 3.38855 99.4791C3.5292 99.5403 3.68004 99.5709 3.84143 99.5709H7.12589V99.9944H3.84143C3.62008 99.9944 3.41268 99.9526 3.21999 99.8689C3.02692 99.7853 2.85723 99.6714 2.71092 99.5265C2.56838 99.3853 2.45487 99.2195 2.37078 99.0279C2.28631 98.8367 2.24408 98.6298 2.24408 98.4069V96.1345H2.67132Z" fill="#3F3F3F"/>
<path fill-rule="evenodd" clip-rule="evenodd" d="M7.69379 99.9944H8.12141V96.1345H7.69379V99.9944Z" fill="#3F3F3F"/>
<path fill-rule="evenodd" clip-rule="evenodd" d="M11.7769 99.9944H11.6476L8.70062 96.1345H9.23496L11.7656 99.4544L14.3245 96.1345H14.8645L11.8836 99.9944H11.7769Z" fill="#3F3F3F"/>
<path fill-rule="evenodd" clip-rule="evenodd" d="M16.6413 96.5635C16.5591 96.5635 16.469 96.5821 16.3717 96.6195C16.2744 96.6565 16.1839 96.7076 16.1017 96.7726C16.0191 96.8376 15.9505 96.9156 15.8966 97.0064C15.8419 97.0975 15.8148 97.1968 15.8148 97.3044V98.0785H19.2738C19.3786 98.0785 19.4801 98.0591 19.5774 98.0203C19.6747 97.981 19.761 97.9276 19.836 97.8586C19.9111 97.7902 19.9699 97.7103 20.0133 97.6192C20.0563 97.5281 20.0781 97.4291 20.0781 97.3212C20.0781 97.2136 20.0555 97.1132 20.0106 97.0206C19.9654 96.9276 19.9047 96.8477 19.8278 96.7808C19.7504 96.7143 19.6626 96.6613 19.563 96.6225C19.4642 96.5833 19.3598 96.5635 19.2512 96.5635H16.6413ZM15.3875 97.3043C15.3875 97.1411 15.4222 96.988 15.4916 96.8449C15.561 96.7023 15.6526 96.5787 15.7672 96.4745C15.8815 96.3707 16.0135 96.2889 16.1636 96.2295C16.3133 96.1701 16.4728 96.1406 16.6413 96.1406H19.2738C19.4386 96.1406 19.5951 96.1712 19.7433 96.2325C19.8915 96.2937 20.0216 96.3778 20.1343 96.4853C20.2467 96.5936 20.3364 96.7187 20.4043 96.8614C20.4718 97.0044 20.5054 97.1575 20.5054 97.3211C20.5054 97.488 20.4718 97.6433 20.4043 97.7864C20.3364 97.9294 20.2448 98.0538 20.1283 98.1594C20.0125 98.2651 19.879 98.3488 19.7293 98.41C19.5792 98.4713 19.4201 98.5019 19.2512 98.5019H15.8148V99.0311C15.8298 99.1278 15.8626 99.2092 15.9136 99.276C15.9637 99.3429 16.0267 99.3985 16.1017 99.443C16.1768 99.4878 16.2612 99.5199 16.3551 99.5404C16.4486 99.561 16.5444 99.571 16.6413 99.571H20.2071V99.9945H16.6134C16.4709 99.9945 16.3276 99.9721 16.1835 99.9277C16.0391 99.8832 15.9087 99.8201 15.7921 99.738C15.6764 99.6569 15.5806 99.5565 15.5055 99.4377C15.4305 99.3186 15.3913 99.183 15.3875 99.0311V97.3043Z" fill="#3F3F3F"/>
<path fill-rule="evenodd" clip-rule="evenodd" d="M23.61 99.9944H24.0376V96.1345H23.61V99.9944Z" fill="#3F3F3F"/>
<path fill-rule="evenodd" clip-rule="evenodd" d="M28.295 96.1345C28.5122 96.1345 28.7185 96.1763 28.9134 96.26C29.1084 96.3436 29.2781 96.4568 29.4225 96.5998C29.5669 96.7429 29.6808 96.9105 29.7653 97.104C29.8497 97.2967 29.892 97.5028 29.892 97.722V99.9944H29.4643V97.722C29.4643 97.5659 29.4334 97.4177 29.3716 97.2765C29.3097 97.1353 29.2264 97.0121 29.1216 96.906C29.0167 96.8 28.8938 96.716 28.7532 96.6529C28.6125 96.5897 28.4635 96.558 28.3059 96.558H25.5279V99.9944H25.1003V96.1345H28.295Z" fill="#3F3F3F"/>
<path fill-rule="evenodd" clip-rule="evenodd" d="M37.2483 96.6025C37.3946 96.7437 37.5096 96.9106 37.5941 97.104C37.6782 97.2967 37.7208 97.5029 37.7208 97.7221V99.9945H37.2931V97.7221C37.2931 97.5623 37.2622 97.4121 37.2004 97.271C37.1385 97.1298 37.0541 97.0062 36.9474 96.9005C36.8406 96.7948 36.7158 96.7112 36.5733 96.6499C36.4307 96.5887 36.2791 96.5581 36.1178 96.5581H34.5261C34.3647 96.5581 34.2142 96.5887 34.0735 96.6499C33.9329 96.7112 33.8092 96.7948 33.7025 96.9005C33.5954 97.0062 33.5113 97.1298 33.4495 97.271C33.3876 97.4121 33.3567 97.5623 33.3567 97.7221V99.9945H32.9291V95.21H33.3567V96.647C33.3639 96.6399 33.3706 96.6324 33.3759 96.6249C33.3816 96.6175 33.3884 96.61 33.3959 96.6025C33.5422 96.4576 33.7115 96.3437 33.905 96.2601C34.0977 96.1764 34.3047 96.1346 34.5261 96.1346H36.1178C36.3391 96.1346 36.5469 96.1764 36.7422 96.2601C36.9372 96.3437 37.1057 96.4576 37.2483 96.6025Z" fill="#3F3F3F"/>
<path fill-rule="evenodd" clip-rule="evenodd" d="M39.4365 98.1957C39.3237 98.2662 39.2351 98.3551 39.1714 98.4627C39.1077 98.5706 39.076 98.6893 39.076 98.8193C39.076 98.9272 39.0975 99.0262 39.1405 99.1173C39.1838 99.208 39.2419 99.2868 39.3151 99.3541C39.3886 99.4209 39.4727 99.4736 39.5685 99.5128C39.6639 99.5516 39.7661 99.571 39.875 99.571H43.2266V98.062H39.8973C39.8113 98.062 39.7287 98.0739 39.6499 98.0982C39.5711 98.1221 39.5002 98.1546 39.4365 98.1957ZM39.8973 99.9944C39.642 99.9944 39.4116 99.9302 39.2053 99.8021C38.9991 99.6744 38.8475 99.5007 38.7498 99.2815C38.6827 99.1366 38.6487 98.9827 38.6487 98.8192C38.6487 98.6519 38.6815 98.4969 38.7468 98.3539C38.8124 98.2112 38.9018 98.0869 39.0141 97.9808C39.1265 97.8751 39.257 97.7918 39.4056 97.7302C39.5534 97.669 39.7099 97.6384 39.875 97.6384H43.2266V97.3766C43.2266 97.2653 43.2044 97.1592 43.1595 97.0592C43.1142 96.9591 43.0532 96.8728 42.9766 96.8C42.8997 96.7279 42.8114 96.6693 42.7123 96.6248C42.6127 96.58 42.5068 96.558 42.3944 96.558H39.5654V96.1345H42.3944C42.5667 96.1345 42.73 96.1674 42.8838 96.2324C43.0373 96.2973 43.1704 96.3862 43.2832 96.4997C43.3956 96.6125 43.4857 96.7447 43.5532 96.8948C43.6203 97.0453 43.6542 97.2059 43.6542 97.3766V100L39.8973 99.9944Z" fill="#3F3F3F"/>
<path fill-rule="evenodd" clip-rule="evenodd" d="M44.7395 99.9944V97.7164C44.7395 97.5009 44.7817 97.2967 44.8662 97.104C44.9507 96.9105 45.0646 96.7429 45.209 96.5998C45.3534 96.4568 45.522 96.3436 45.7154 96.26C45.9085 96.1763 46.1151 96.1345 46.3365 96.1345H49.2276V96.558H46.3365C46.1755 96.558 46.0246 96.5886 45.884 96.6499C45.7433 96.7111 45.6196 96.7948 45.5129 96.9004C45.4062 97.0061 45.3217 97.1286 45.2599 97.2679C45.198 97.4072 45.1671 97.557 45.1671 97.7164V99.9944H44.7395Z" fill="#3F3F3F"/>
<path fill-rule="evenodd" clip-rule="evenodd" d="M56.3196 96.26C56.5145 96.3436 56.6842 96.4568 56.8286 96.5998C56.9727 96.7429 57.087 96.9105 57.1714 97.104C57.2555 97.2967 57.2981 97.5028 57.2981 97.722V99.9944H56.8705V97.722C56.8705 97.5659 56.8396 97.4177 56.7777 97.2765C56.7159 97.1353 56.6326 97.0121 56.5277 96.906C56.4221 96.8 56.2996 96.716 56.1589 96.6529C56.0183 96.5897 55.8697 96.558 55.7121 96.558H53.5525V99.9944H53.1249V96.558H50.1722V99.9944H49.7446V96.1345H55.7008C55.9184 96.1345 56.1242 96.1763 56.3196 96.26Z" fill="#3F3F3F"/>
<path fill-rule="evenodd" clip-rule="evenodd" d="M58.6534 98.413C58.6534 98.5724 58.6847 98.7218 58.7465 98.8611C58.8084 99.0004 58.8925 99.1229 58.9992 99.2285C59.1063 99.3342 59.23 99.4179 59.3706 99.4791C59.5113 99.5404 59.6621 99.571 59.8235 99.571H62.7143C62.8753 99.571 63.0273 99.5404 63.1698 99.4791C63.312 99.4179 63.4368 99.3342 63.5435 99.2285C63.6502 99.1229 63.7347 99.0004 63.7965 98.8611C63.8584 98.7218 63.8893 98.5724 63.8893 98.413V97.7165C63.8893 97.557 63.8584 97.4073 63.7965 97.268C63.7347 97.1287 63.6502 97.0062 63.5435 96.9005C63.4368 96.7948 63.312 96.7112 63.1698 96.6499C63.0273 96.5887 62.8753 96.5581 62.7143 96.5581H59.8235C59.6621 96.5581 59.5113 96.5887 59.3706 96.6499C59.23 96.7112 59.1063 96.7948 58.9992 96.9005C58.8925 97.0062 58.8084 97.1287 58.7465 97.268C58.6847 97.4073 58.6534 97.557 58.6534 97.7165V98.413ZM59.8235 99.9944C59.6021 99.9944 59.3947 99.9526 59.202 99.8689C59.0086 99.7853 58.84 99.6725 58.6956 99.5295C58.5512 99.3864 58.4369 99.2195 58.3528 99.0279C58.2684 98.8367 58.2261 98.6321 58.2261 98.4129V97.7164C58.2261 97.5009 58.2684 97.2967 58.3528 97.104C58.4369 96.9105 58.5512 96.7429 58.6956 96.5998C58.84 96.4568 59.0086 96.3436 59.202 96.26C59.3947 96.1763 59.6021 96.1345 59.8235 96.1345H62.7143C62.9352 96.1345 63.1434 96.1763 63.3383 96.26C63.5333 96.3436 63.703 96.4568 63.8474 96.5998C63.9918 96.7429 64.1057 96.9105 64.1906 97.104C64.275 97.2967 64.3169 97.5009 64.3169 97.7164V98.4129C64.3169 98.6321 64.275 98.8367 64.1906 99.0279C64.1057 99.2195 63.9918 99.3864 63.8474 99.5295C63.703 99.6725 63.5333 99.7853 63.3383 99.8689C63.1434 99.9526 62.9352 99.9944 62.7143 99.9944H59.8235Z" fill="#3F3F3F"/>
<path fill-rule="evenodd" clip-rule="evenodd" d="M68.4396 96.1345C68.6568 96.1345 68.8631 96.1763 69.0581 96.26C69.253 96.3436 69.4227 96.4568 69.5671 96.5998C69.7116 96.7429 69.8258 96.9105 69.9103 97.104C69.9948 97.2967 70.0366 97.5028 70.0366 97.722V99.9944H69.6094V97.722C69.6094 97.5659 69.5785 97.4177 69.5166 97.2765C69.4548 97.1353 69.3711 97.0121 69.2662 96.906C69.1614 96.8 69.0385 96.716 68.8978 96.6529C68.7572 96.5897 68.6082 96.558 68.4506 96.558H65.6726V99.9944H65.2449V96.1345H68.4396Z" fill="#3F3F3F"/>
<path fill-rule="evenodd" clip-rule="evenodd" d="M75.7563 96.1345V98.4129C75.7563 98.6321 75.7144 98.8367 75.63 99.0279C75.5455 99.2195 75.4312 99.3864 75.2868 99.5295C75.1424 99.6725 74.9738 99.7853 74.7804 99.8689C74.5873 99.9526 74.3807 99.9944 74.1593 99.9944H71.2685V99.5709H74.1593C74.3203 99.5709 74.4715 99.5403 74.6118 99.4791C74.7525 99.4178 74.8762 99.3342 74.9829 99.2285C75.0896 99.1228 75.1744 99.0003 75.2363 98.861C75.2981 98.7217 75.329 98.5723 75.329 98.4129V98.3233H72.562C72.3406 98.3233 72.1336 98.2818 71.9405 98.1982C71.7471 98.1149 71.5785 98.0013 71.4341 97.8583C71.2897 97.7153 71.1758 97.5472 71.0913 97.3546C71.0068 97.1615 70.9646 96.9553 70.9646 96.7361V96.1345H71.3922V96.7361C71.3922 96.8919 71.4231 97.0409 71.485 97.1816C71.5468 97.3232 71.6302 97.4464 71.7354 97.5521C71.8398 97.6578 71.9628 97.7426 72.1034 97.8057C72.2441 97.8688 72.393 97.9005 72.5506 97.9005H75.329V96.1345H75.7563Z" fill="#3F3F3F"/>
</svg>
